<svg xmlns="http://www.w3.org/2000/svg" width="24" height="24" viewBox="0 0 24 24" fill="none">
  <path d="M19.5 15.8H17.5C17.5 14.6 16.7 13.5 15.6 13.1L9.40002 10.8H1.40002V21.8H7.40002V20.4L14.4 22.3L22.4 19.8V18.8C22.5 17.1 21.2 15.8 19.5 15.8ZM3.50002 19.8V12.8H5.50002V19.8H3.50002ZM14.5 20.2L7.50002 18.3V12.8H9.10002L14.9 15C15.2 15.1 15.5 15.5 15.5 15.8C15.5 15.8 13.5 15.7 13.2 15.7L10.8 14.9L10.2 16.8L12.6 17.6C13.1 17.8 13.6 17.9 14.2 17.9H19.6C20 17.9 20.3 18.1 20.5 18.5L14.5 20.2Z" fill="#BFBFBF"/>
  <path d="M17.2 12C14.3 12 11.9 9.60002 11.9 6.70002C11.9 3.80002 14.3 1.40002 17.2 1.40002C20.1 1.40002 22.5 3.80002 22.5 6.70002C22.5 9.60002 20.1 12 17.2 12ZM17.2 3.40002C15.4 3.40002 13.9 4.90002 13.9 6.70002C13.9 8.50002 15.4 10 17.2 10C19 10 20.5 8.50002 20.5 6.70002C20.5 4.90002 19 3.40002 17.2 3.40002Z" fill="#BFBFBF"/>
</svg>