<svg xmlns="http://www.w3.org/2000/svg" width="24" height="24" viewBox="0 0 24 24" fill="none">
  <path d="M12.6 10.8C10.8 10.3 10.3 9.89995 10.3 9.09995C10.3 8.29995 11.1 7.69995 12.4 7.69995C13.8 7.69995 14.3 8.39995 14.3 9.29995H16C16 7.99995 15.1 6.69995 13.5 6.29995V4.69995H11.2V6.39995C9.70002 6.69995 8.50002 7.69995 8.50002 9.19995C8.50002 11 10 11.9 12.2 12.4C14.1 12.9 14.5 13.5 14.5 14.3C14.5 14.8 14.1 15.7 12.4 15.7C10.8 15.7 10.2 15 10.1 14.1H8.40002C8.50002 15.8 9.80002 16.8 11.3 17.1V18.8H13.6V17C15.1 16.7 16.3 15.8 16.3 14.2C16.3 12.1 14.4 11.3 12.6 10.8Z" fill="#BFBFBF"/>
  <path d="M20.8 14.8C20 17.1 18.3 18.8 16.1 19.9C13.9 20.9 11.5 21 9.19999 20.2C6.89999 19.4 5.19999 17.7 4.09999 15.5C2.99999 13.3 2.99999 10.8 3.89999 8.59999C5.59999 3.89999 10.8 1.59999 15.5 3.29999C17 3.79999 18.2 4.79999 19.2 5.89999L18.2 6.69999L21.9 7.79999L21.7 3.99999L20.8 4.69999C19.6 3.19999 18 2.09999 16.2 1.39999C10.4 -0.700015 4.09999 2.19999 1.99999 7.89999C0.999995 10.7 1.09999 13.6 2.29999 16.3C3.59999 19 5.79999 21 8.49999 22C9.69999 22.5 11 22.7 12.3 22.7C13.9 22.7 15.4 22.4 16.9 21.7C19.6 20.5 21.6 18.3 22.6 15.5L20.8 14.8Z" fill="#BFBFBF"/>
</svg>